<?xml version="1.0" standalone="no"?>
<!DOCTYPE svg PUBLIC "-//W3C//DTD SVG 20010904//EN"
 "http://www.w3.org/TR/2001/REC-SVG-20010904/DTD/svg10.dtd">
<svg version="1.0" xmlns="http://www.w3.org/2000/svg"
 width="512.000000pt" height="512.000000pt" viewBox="0 0 512.000000 512.000000"
 preserveAspectRatio="xMidYMid meet">
<metadata>
Created by potrace 1.11, written by Peter Selinger 2001-2013
</metadata>
<g transform="translate(0.000000,512.000000) scale(0.100000,-0.100000)"
fill="#000000" stroke="none">
<path d="M1976 5060 c-50 -32 -65 -73 -66 -179 0 -77 4 -100 21 -131 27 -48
66 -70 123 -70 l46 0 0 -67 c0 -81 22 -134 61 -144 14 -3 54 -2 90 4 82 12
461 15 604 3 l110 -8 24 26 c20 22 25 39 29 106 l5 80 44 0 c56 0 95 23 122
70 29 52 30 203 2 258 -39 75 -13 72 -633 72 -531 0 -554 -1 -582 -20z"/>
<path d="M3668 4549 c-28 -16 -137 -179 -144 -214 -3 -18 -1 -42 5 -52 5 -11
52 -42 103 -69 119 -63 286 -174 383 -255 162 -136 166 -139 197 -139 46 0 63
14 128 107 66 95 73 127 38 160 -37 33 -656 461 -675 467 -10 3 -26 1 -35 -5z"/>
<path d="M2345 4199 c-811 -84 -1508 -643 -1763 -1414 -74 -223 -102 -404
-102 -660 0 -344 61 -618 204 -910 270 -552 768 -961 1351 -1109 198 -50 284
-60 525 -60 292 0 479 31 720 121 732 271 1253 928 1349 1703 14 109 14 401 0
510 -69 559 -365 1073 -811 1408 -426 319 -949 465 -1473 411z m560 -288 c791
-160 1377 -802 1464 -1603 60 -549 -153 -1118 -561 -1504 -255 -240 -556 -395
-908 -466 -100 -20 -144 -23 -340 -23 -196 0 -240 3 -340 23 -281 57 -523 164
-748 331 -506 375 -789 1019 -721 1639 52 484 290 923 663 1227 268 217 568
344 941 399 17 2 122 3 235 1 164 -2 227 -7 315 -24z"/>
<path d="M2495 3656 c-41 -18 -83 -69 -90 -109 -3 -18 -5 -358 -3 -757 l3
-725 23 -33 c31 -43 75 -64 132 -64 57 0 101 21 132 64 l23 33 0 752 c0 743 0
752 -21 779 -11 15 -32 37 -46 47 -33 25 -113 32 -153 13z"/>
</g>
</svg>
